<svg width="400" height="338" viewBox="0 0 400 338" fill="none" xmlns="http://www.w3.org/2000/svg">
<g clip-path="url(#clip0_7_2325)">
<path d="M394.615 115.648C395.084 117.483 395.524 119.328 395.935 121.181H256.283V115.648H394.615Z" fill="#E6E6E6"/>
<path d="M390.164 101.064C387.915 94.7121 385.294 88.4989 382.312 82.4567C381.395 80.5937 380.443 78.7494 379.455 76.9238C379.293 76.6105 379.119 76.2972 378.946 75.9839V117.159H391.014V103.514L390.164 101.064Z" fill="#E6E6E6"/>
<path d="M382.312 82.4567H378.946V76.9238H379.455C380.445 78.7476 381.397 80.5919 382.312 82.4567Z" fill="#CCCCCC"/>
<path d="M390.164 101.064H378.946V106.597H391.014V103.514L390.164 101.064Z" fill="#CCCCCC"/>
<path d="M372.411 69.3806H360.346V117.16H372.411V69.3806Z" fill="#E6E6E6"/>
<path d="M372.411 76.9248H360.346V82.4571H372.411V76.9248Z" fill="#CCCCCC"/>
<path d="M372.411 101.066H360.346V106.598H372.411V101.066Z" fill="#CCCCCC"/>
<path d="M317.388 69.1028H274.105C273.438 69.1038 272.799 69.3693 272.327 69.8413C271.855 70.3132 271.59 70.9529 271.589 71.6203V114.921C271.59 115.168 271.625 115.412 271.695 115.649C271.852 116.166 272.171 116.619 272.605 116.942C273.039 117.264 273.565 117.438 274.105 117.439H317.388C317.929 117.438 318.454 117.264 318.888 116.942C319.322 116.619 319.641 116.166 319.798 115.649C319.868 115.412 319.904 115.168 319.904 114.921V71.6203C319.903 70.9529 319.638 70.3132 319.166 69.8413C318.695 69.3693 318.055 69.1038 317.388 69.1028Z" fill="#E6E6E6"/>
<path d="M314.312 72.1797H277.181C276.514 72.1807 275.874 72.4463 275.403 72.9182C274.931 73.3901 274.666 74.0298 274.665 74.6972V111.844C274.666 112.512 274.931 113.151 275.403 113.623C275.874 114.095 276.514 114.361 277.181 114.362H314.312C314.98 114.361 315.619 114.095 316.091 113.623C316.562 113.151 316.828 112.512 316.829 111.844V74.6972C316.828 74.0298 316.562 73.3901 316.091 72.9182C315.619 72.4463 314.98 72.1807 314.312 72.1797Z" fill="white"/>
<path d="M307.837 78.658H283.657C282.989 78.659 282.35 78.9245 281.878 79.3964C281.407 79.8683 281.141 80.5081 281.14 81.1755V105.366C281.141 106.033 281.407 106.673 281.878 107.145C282.35 107.617 282.989 107.882 283.657 107.883H307.837C308.503 107.88 309.141 107.614 309.612 107.142C310.084 106.671 310.35 106.032 310.353 105.366V81.1755C310.352 80.5081 310.087 79.8683 309.615 79.3964C309.143 78.9245 308.504 78.659 307.837 78.658Z" fill="#CCCCCC"/>
<path d="M306.346 101.099L301.239 92.2493C301.141 92.0792 301 91.9379 300.83 91.8397C300.659 91.7415 300.467 91.6898 300.27 91.6898C300.074 91.6898 299.881 91.7415 299.711 91.8397C299.541 91.9379 299.4 92.0792 299.302 92.2493L295.572 98.7115L290.681 90.2374C290.583 90.0673 290.442 89.9261 290.272 89.8279C290.102 89.7297 289.909 89.678 289.713 89.678C289.517 89.678 289.324 89.7297 289.154 89.8279C288.984 89.9261 288.843 90.0673 288.744 90.2374L283.637 99.0873L277.561 109.616H289.28L288.119 111.627H312.422L306.346 101.099Z" fill="white"/>
<path d="M304.543 87.4864C306.487 87.4864 308.063 85.9102 308.063 83.9659C308.063 82.0215 306.487 80.4453 304.543 80.4453C302.6 80.4453 301.024 82.0215 301.024 83.9659C301.024 85.9102 302.6 87.4864 304.543 87.4864Z" fill="white"/>
<path d="M399.956 154.743C399.916 152.572 399.83 150.412 399.698 148.264C399.642 147.235 399.575 146.211 399.491 145.187H375.881C375.214 145.188 374.575 145.454 374.103 145.926C373.631 146.398 373.366 147.037 373.365 147.705V191.006C373.364 191.204 373.388 191.401 373.438 191.593C373.57 192.142 373.883 192.631 374.326 192.981C374.769 193.331 375.317 193.522 375.881 193.523H397.646C397.758 192.886 397.864 192.237 397.959 191.593C398.02 191.213 398.082 190.827 398.138 190.446C398.272 189.534 398.401 188.623 398.518 187.711C398.686 186.469 398.837 185.221 398.971 183.968C399.463 179.476 399.78 174.935 399.922 170.346V170.34C399.972 168.611 399.998 166.875 400 165.131V158.418C400 157.187 399.989 155.962 399.956 154.743Z" fill="#E6E6E6"/>
<path d="M399.956 154.743C399.916 152.572 399.83 150.412 399.698 148.264H378.957C378.29 148.265 377.651 148.531 377.179 149.003C376.707 149.475 376.442 150.114 376.441 150.782V187.929C376.442 188.596 376.707 189.236 377.179 189.708C377.651 190.18 378.29 190.445 378.957 190.446H398.138C398.272 189.534 398.401 188.623 398.518 187.711C398.686 186.469 398.837 185.221 398.971 183.968C399.463 179.476 399.78 174.935 399.922 170.345V170.34C399.972 168.611 399.998 166.875 400 165.131V158.418C400 157.187 399.989 155.962 399.956 154.743Z" fill="white"/>
<path d="M399.955 154.743H385.433C384.766 154.744 384.126 155.009 383.654 155.481C383.183 155.953 382.917 156.593 382.916 157.26V181.451C382.917 182.118 383.183 182.758 383.654 183.23C384.126 183.702 384.766 183.967 385.433 183.968H398.971C399.463 179.476 399.78 174.935 399.922 170.346V170.34C399.972 168.611 399.998 166.875 400 165.132V158.418C400 157.187 399.989 155.962 399.955 154.743Z" fill="#CCCCCC"/>
<path d="M399.922 170.345C399.782 174.933 399.465 179.474 398.971 183.968C398.837 185.221 398.686 186.469 398.518 187.711H389.895L391.058 185.702H379.337L382.916 179.498L385.41 175.173L390.522 166.323C390.619 166.152 390.76 166.01 390.93 165.912C391.1 165.813 391.293 165.761 391.489 165.761C391.686 165.761 391.879 165.813 392.048 165.912C392.218 166.01 392.359 166.152 392.456 166.323L397.35 174.799L399.922 170.345Z" fill="white"/>
<path d="M357.551 45.2424H256.283V39.7095H352.529C354.24 41.5165 355.914 43.3608 357.551 45.2424Z" fill="#E6E6E6"/>
<path d="M310.074 6.86987C314.201 9.14122 318.223 11.5748 322.141 14.1706V41.2142H310.074V6.86987Z" fill="#E6E6E6"/>
<path d="M322.139 25.1223H310.073V30.6546H322.139V25.1223Z" fill="#CCCCCC"/>
<path d="M340.741 28.3806V41.2143H328.673V18.719C331.486 20.7722 334.235 22.9074 336.921 25.1246C338.207 26.1876 339.48 27.2729 340.741 28.3806Z" fill="#E6E6E6"/>
<path d="M340.741 28.3807V30.6521H328.673V25.1248H336.921C338.207 26.1877 339.48 27.273 340.741 28.3807Z" fill="#CCCCCC"/>
<path d="M297.754 0.704906C300.947 2.14265 304.086 3.67553 307.171 5.30355L304.689 10.3162L296.44 26.9932L293.985 31.9499L290.144 39.7094L289.299 41.4157L285.86 39.7094L278.49 36.0563L283.17 26.5904H283.176L285.625 21.6338L293.879 4.95669L296.306 0.0559479L296.334 0L297.754 0.704906Z" fill="#E6E6E6"/>
<path d="M307.143 5.35389L304.688 10.3162L293.879 4.95668L296.306 0.0559445L296.334 0L297.754 0.704901L307.143 5.35389Z" fill="#CCCCCC"/>
<path d="M285.625 21.6353L283.172 26.5933L293.984 31.9488L296.438 26.9909L285.625 21.6353Z" fill="#CCCCCC"/>
<path d="M397.959 191.593C397.864 192.237 397.758 192.886 397.646 193.523C397.45 194.732 397.237 195.929 397.008 197.126H256.283V191.593H397.959Z" fill="#E6E6E6"/>
<path d="M322.139 145.324H310.073V193.103H322.139V145.324Z" fill="#E6E6E6"/>
<path d="M322.139 152.868H310.073V158.4H322.139V152.868Z" fill="#CCCCCC"/>
<path d="M322.139 177.009H310.073V182.541H322.139V177.009Z" fill="#CCCCCC"/>
<path d="M340.74 145.324H328.674V193.103H340.74V145.324Z" fill="#E6E6E6"/>
<path d="M340.74 152.868H328.674V158.4H340.74V152.868Z" fill="#CCCCCC"/>
<path d="M340.74 177.009H328.674V182.541H340.74V177.009Z" fill="#CCCCCC"/>
<path d="M299.678 145.127L278.488 187.945L289.3 193.301L310.49 150.482L299.678 145.127Z" fill="#E6E6E6"/>
<path d="M296.332 151.887L293.878 156.845L304.691 162.201L307.145 157.243L296.332 151.887Z" fill="#CCCCCC"/>
<path d="M285.625 173.522L283.172 178.48L293.984 183.835L296.438 178.877L285.625 173.522Z" fill="#CCCCCC"/>
<path d="M163.735 212.915C164.24 213.205 164.72 213.535 165.173 213.9L214.958 198.401L217.766 186.043L236.961 187.845L234.116 210.204C233.886 212.01 233.077 213.693 231.809 215C230.542 216.307 228.885 217.167 227.088 217.452L168.497 226.732C167.643 228.805 166.177 230.568 164.297 231.787C162.416 233.006 160.208 233.624 157.968 233.557C155.728 233.491 153.561 232.744 151.756 231.415C149.951 230.086 148.592 228.24 147.862 226.12C147.131 224 147.063 221.708 147.666 219.549C148.27 217.39 149.516 215.465 151.239 214.032C152.962 212.598 155.081 211.723 157.313 211.524C159.545 211.324 161.786 211.81 163.735 212.915Z" fill="#FFB8B8"/>
<path d="M245.832 195.258L245.502 189.618V189.613L245.412 188.069L244.439 171.464C244.73 168.003 243.639 164.567 241.403 161.909C239.168 159.251 235.97 157.587 232.511 157.282C231.516 157.193 230.514 157.219 229.525 157.361C226.587 157.776 223.875 159.173 221.83 161.324C219.785 163.474 218.526 166.253 218.257 169.21L216.238 177.613L212.71 192.309C212.46 193.338 212.563 194.42 213.004 195.382C213.444 196.344 214.195 197.13 215.137 197.613C215.68 197.899 216.275 198.074 216.887 198.128L222.77 198.653L228.435 199.157L234.972 199.739L235.442 199.778L236.649 199.89L240.693 200.248H240.704C241.379 200.302 242.058 200.213 242.696 199.985C243.335 199.758 243.917 199.397 244.406 198.928C244.762 198.581 245.062 198.181 245.295 197.742C245.703 196.98 245.889 196.12 245.832 195.258Z" fill="#CBB3CB"/>
<path d="M300.464 126.878C300.464 146.025 282.767 143.129 260.936 143.129C239.106 143.129 221.409 146.025 221.409 126.878C221.409 107.731 230.053 73.791 260.936 73.791C292.883 73.791 300.464 107.731 300.464 126.878Z" fill="#2F2E41"/>
<path d="M279.612 135.303C289.999 124.912 289.999 108.063 279.612 97.6717C269.225 87.28 252.383 87.28 241.996 97.6717C231.609 108.063 231.609 124.912 241.996 135.303C252.383 145.695 269.225 145.695 279.612 135.303Z" fill="#FFB8B8"/>
<path d="M298.246 154.284C297.734 153.79 297.191 153.331 296.619 152.908C293.003 150.174 288.459 148.971 283.964 149.556L234.95 155.761C230.46 156.318 226.364 158.603 223.53 162.131C220.695 165.659 219.346 170.152 219.767 174.659C219.907 176.225 220.064 177.876 220.237 179.593C220.461 181.747 220.712 184.007 221.003 186.346C221.484 190.278 222.071 194.43 222.77 198.653C223.38 202.29 224.073 205.977 224.867 209.619C225.096 210.67 225.335 211.718 225.583 212.763C225.582 212.766 225.583 212.769 225.584 212.772C225.585 212.775 225.586 212.777 225.589 212.779C225.616 212.908 225.644 213.037 225.678 213.16C225.676 213.17 225.678 213.179 225.684 213.188C226.03 214.642 226.394 216.08 226.774 217.501C226.919 218.027 227.059 218.547 227.204 219.062C227.596 220.461 228.01 221.831 228.435 223.179C231.628 233.21 235.85 241.753 241.425 246.296C241.498 246.363 241.571 246.419 241.649 246.48L241.873 246.654L242.197 246.553L243.573 246.145L244.747 245.787L260.047 241.182L263.855 240.036L276.091 236.349H276.096L287.286 232.981L288.651 232.567L298.263 229.675L298.571 226.083L298.985 221.316L299.231 218.452L301.177 195.862L302.312 182.681L303.542 168.371C303.771 165.776 303.414 163.162 302.497 160.724C301.58 158.286 300.128 156.085 298.246 154.284Z" fill="#2F2E41"/>
<path d="M325.653 263.594C325.525 263.219 325.402 262.844 325.273 262.475C319.524 245.692 311.047 232.998 298.571 226.083C298.565 226.083 298.565 226.077 298.559 226.077L298.347 225.96L287.476 229.725L286.134 230.189L284.736 230.676L284.719 230.682L274.542 234.206L274.525 234.212L266.539 236.975H266.534L259.146 239.532H259.141L257.424 240.131L244.512 244.601L243.013 245.121L241.671 245.585L241.464 245.658L241.425 246.296L240.502 262.475L240.441 263.594L239.289 283.784L201.033 338H227.204C235.974 338.002 244.73 337.334 253.398 336.003L277.953 309.53C278.158 309.317 278.418 309.164 278.705 309.088C278.991 309.012 279.293 309.015 279.577 309.098C279.861 309.181 280.118 309.34 280.318 309.558C280.519 309.776 280.656 310.045 280.715 310.335L284.322 328.238C302.091 321.952 318.714 312.801 333.532 301.149C331.81 287.247 329.294 274.576 325.653 263.594Z" fill="#2F2E41"/>
<path d="M230.072 113.877H240.592L245.234 100.876L246.162 113.877H251.19L253.897 106.293L254.439 113.877H291.8C291.8 110.178 291.072 106.515 289.657 103.097C288.242 99.6799 286.168 96.5746 283.554 93.9589C280.939 91.3432 277.835 89.2683 274.419 87.8527C271.003 86.4371 267.341 85.7085 263.644 85.7085H258.229C250.761 85.7085 243.6 88.6763 238.319 93.9589C233.039 99.2415 230.072 106.406 230.072 113.877Z" fill="#2F2E41"/>
<path d="M165.363 254.859C163.646 255.581 161.791 255.918 159.929 255.845C158.068 255.772 156.245 255.292 154.589 254.438C152.933 253.584 151.484 252.377 150.345 250.903C149.206 249.428 148.403 247.722 147.995 245.903L102.998 240.805L118.081 222.735L158.499 230.347C161.598 229.862 164.766 230.532 167.405 232.228C170.043 233.925 171.968 236.531 172.814 239.553C173.66 242.574 173.369 245.801 171.996 248.622C170.623 251.443 168.263 253.663 165.363 254.859Z" fill="#A0616A"/>
<path d="M141.103 221.412L122.084 218.01L120.703 217.764C119.599 217.567 118.55 217.138 117.624 216.506C116.697 215.875 115.915 215.054 115.328 214.098C114.741 213.142 114.363 212.073 114.219 210.961C114.075 209.848 114.167 208.718 114.49 207.644L123.829 176.6L124.109 175.677C125.275 171.731 125.067 167.506 123.52 163.694C121.973 159.882 119.177 156.708 115.592 154.692C113.165 153.344 110.46 152.574 107.687 152.442C104.914 152.31 102.148 152.82 99.6039 153.932C97.06 155.043 94.8067 156.727 93.0192 158.852C91.2317 160.977 89.9583 163.486 89.2979 166.183L77.3869 214.816L76.9451 216.617C76.1131 220.011 76.0224 223.544 76.6791 226.975C77.3358 230.407 78.7244 233.657 80.7503 236.503C82.7762 239.349 85.3918 241.724 88.4187 243.468C91.4455 245.211 94.8125 246.28 98.2901 246.604C98.3291 246.609 98.3627 246.609 98.402 246.615L105.532 247.247L114.781 248.069L126.413 249.104L137.267 250.072C138.689 250.201 140.107 249.791 141.24 248.922C142.373 248.054 143.139 246.791 143.385 245.384C143.401 245.306 143.413 245.227 143.424 245.149L145.728 227.94L145.75 227.784C145.949 226.327 145.576 224.849 144.71 223.661C143.843 222.473 142.551 221.667 141.103 221.412Z" fill="#CCCCCC"/>
<path d="M111.801 91.0226C104.209 105.956 98.2256 121.358 81.4789 121.358C73.4368 121.358 65.7241 118.162 60.0375 112.473C54.3509 106.784 51.1562 99.068 51.1562 91.0226C51.1562 74.2688 64.7333 60.8969 81.4789 60.6871C98.4983 60.474 125.933 63.2273 111.801 91.0226Z" fill="#2F2E41"/>
<path d="M130.847 286.38L130.159 279.51L129.645 279.538L39.2263 283.896L39.4611 290.85L39.8584 302.761C53.8493 313.423 69.3862 321.884 85.9315 327.852L86.5188 323.298C86.5701 322.927 86.7481 322.585 87.0225 322.33C87.2969 322.075 87.6509 321.923 88.0246 321.899C88.3983 321.875 88.7688 321.982 89.0732 322.2C89.3776 322.418 89.5972 322.735 89.6949 323.096L91.4788 329.748C105.892 334.398 120.859 337.109 135.986 337.81L130.847 286.38Z" fill="#2F2E41"/>
<path d="M101.779 114.155C112.166 103.763 112.166 86.915 101.779 76.5233C91.3916 66.1316 74.5504 66.1316 64.1631 76.5233C53.7758 86.915 53.7758 103.763 64.1631 114.155C74.5504 124.547 91.3916 124.547 101.779 114.155Z" fill="#A0616A"/>
<path d="M136.042 279.974L130.769 263.594L130.679 263.314L130.411 262.475L128.907 257.809C128.42 256.293 127.956 254.771 127.525 253.244C127.128 251.868 126.758 250.488 126.413 249.104C125.921 247.18 125.473 245.248 125.071 243.308C123.706 236.791 122.796 230.187 122.347 223.543C122.224 221.703 122.136 219.858 122.084 218.01C121.757 206.683 122.776 195.357 125.121 184.27C127.162 174.683 126.072 164.693 122.011 155.773C117.949 146.852 111.132 139.472 102.563 134.72C96.9393 131.611 90.7153 129.743 84.3099 129.243C83.8681 129.21 83.4263 129.182 82.979 129.154C76.2126 128.726 69.4366 129.824 63.1511 132.367C56.8657 134.909 51.2313 138.832 46.664 143.845C44.2177 146.511 42.093 149.455 40.3335 152.617C35.4519 161.416 33.6193 171.584 35.1218 181.534L41.4072 223.756L39.9758 241.529L38.287 262.475L38.1975 263.594L36.3967 285.927C36.3114 286.968 36.5634 288.009 37.1153 288.895C37.6672 289.782 38.4897 290.467 39.4612 290.85C40.0302 291.078 40.6378 291.194 41.2508 291.191C41.3403 291.191 41.4241 291.191 41.5137 291.186L130.847 286.38L131.664 286.335C132.409 286.297 133.135 286.087 133.787 285.723C134.438 285.358 134.997 284.849 135.42 284.234C135.843 283.62 136.119 282.916 136.227 282.177C136.335 281.438 136.272 280.685 136.042 279.974Z" fill="#CCCCCC"/>
<path d="M111.196 80.3008C105.118 84.4918 97.9038 86.7223 90.5219 86.6928C93.1551 88.5194 96.1528 89.7532 99.3085 90.3092C89.4937 92.4154 79.3501 92.4724 69.5123 90.4767C67.3255 90.1259 65.2154 89.4009 63.2747 88.3335C61.3858 87.1863 59.8056 85.3597 59.4246 83.1822C58.7709 79.446 61.6809 76.0516 64.7051 73.764C69.3353 70.315 74.6739 67.9386 80.3347 66.807C85.9956 65.6753 91.8371 65.8166 97.4367 67.2206C101.093 68.1661 104.756 69.7636 107.131 72.7012C109.506 75.6387 110.209 80.1675 107.946 83.1924L111.196 80.3008Z" fill="#2F2E41"/>
<path d="M112.556 249.324C110.854 250.083 109.007 250.459 107.145 250.427C105.282 250.394 103.449 249.954 101.775 249.136C100.101 248.318 98.6266 247.143 97.4556 245.693C96.2846 244.244 95.4455 242.555 94.9975 240.746L49.9006 236.624L64.5896 218.231L105.162 224.966C108.25 224.414 111.433 225.015 114.107 226.654C116.782 228.293 118.762 230.857 119.674 233.859C120.585 236.862 120.364 240.094 119.052 242.945C117.74 245.795 115.429 248.064 112.556 249.324Z" fill="#A0616A"/>
<path d="M87.5812 216.41L77.3868 214.816L67.1028 213.205C65.9953 213.031 64.9369 212.626 63.9971 212.014C63.0574 211.403 62.2575 210.6 61.6502 209.657C61.0428 208.715 60.6417 207.654 60.4731 206.545C60.3045 205.437 60.3722 204.305 60.6719 203.224L69.5969 171.056C70.6769 167.086 70.3777 162.867 68.7482 159.089C67.1187 155.311 64.2554 152.199 60.6272 150.261C58.1762 148.953 55.4543 148.234 52.6773 148.161C49.9003 148.089 47.1444 148.664 44.6283 149.842C42.1044 151.001 39.8841 152.731 38.1422 154.895C36.4003 157.059 35.1844 159.598 34.5904 162.312L23.3336 213.003C22.5753 216.423 22.5643 219.965 23.3014 223.389C24.0386 226.814 25.5064 230.038 27.6045 232.842C29.7026 235.646 32.3814 237.963 35.4576 239.635C38.5339 241.308 41.9349 242.295 45.4281 242.531L84.3657 245.143C85.7895 245.241 87.1978 244.799 88.3121 243.907C89.4263 243.015 90.1653 241.738 90.3827 240.326C90.3996 240.248 90.405 240.17 90.4162 240.092L92.3456 222.838L92.3623 222.682C92.5286 221.221 92.1238 219.753 91.2327 218.584C90.3416 217.415 89.0331 216.636 87.5812 216.41Z" fill="#CCCCCC"/>
<path d="M260.084 189.668L257.751 190.942L229.001 206.635L226.667 207.909C225.535 208.529 224.695 209.573 224.331 210.812C223.967 212.05 224.109 213.383 224.726 214.517L246.135 253.772C246.754 254.905 247.798 255.746 249.036 256.11C250.274 256.474 251.606 256.332 252.74 255.715L252.746 255.712L286.151 237.477L286.157 237.474C287.289 236.854 288.13 235.811 288.494 234.572C288.858 233.333 288.716 232 288.099 230.866L266.69 191.611C266.07 190.478 265.027 189.638 263.789 189.273C262.55 188.909 261.218 189.051 260.084 189.668Z" fill="#E6E6E6"/>
<path d="M260.756 190.899L257.992 192.408L230.103 207.631L227.339 209.14C226.532 209.581 225.934 210.324 225.675 211.207C225.415 212.089 225.517 213.038 225.956 213.846L247.365 253.101C247.806 253.907 248.549 254.506 249.431 254.765C250.313 255.025 251.262 254.923 252.069 254.484L252.075 254.481L285.48 236.247L285.486 236.243C286.292 235.802 286.891 235.059 287.15 234.176C287.409 233.294 287.308 232.345 286.869 231.538L265.459 192.282C265.018 191.476 264.275 190.877 263.393 190.618C262.512 190.358 261.563 190.46 260.756 190.899Z" fill="white"/>
<path d="M261.54 201.982C261.436 201.794 261.262 201.654 261.056 201.593C260.849 201.532 260.628 201.555 260.438 201.658L259.325 202.267L247.979 208.46C247.791 208.564 247.652 208.738 247.592 208.944C247.532 209.15 247.556 209.372 247.659 209.56C247.761 209.749 247.935 209.889 248.14 209.95C248.346 210.011 248.567 209.989 248.756 209.887L261.216 203.084C261.404 202.98 261.544 202.806 261.604 202.6C261.665 202.393 261.642 202.171 261.54 201.982Z" fill="#E6E6E6"/>
<path d="M265.784 202.782C265.734 202.689 265.665 202.606 265.582 202.54C265.5 202.473 265.405 202.423 265.303 202.394C265.201 202.364 265.094 202.355 264.988 202.367C264.883 202.379 264.781 202.412 264.688 202.463L249.293 210.866C249.2 210.917 249.117 210.986 249.051 211.069C248.984 211.152 248.934 211.247 248.905 211.349C248.875 211.451 248.865 211.558 248.877 211.664C248.888 211.77 248.92 211.872 248.971 211.965C249.023 212.059 249.091 212.141 249.174 212.208C249.257 212.274 249.352 212.324 249.454 212.354C249.556 212.384 249.663 212.393 249.769 212.382C249.875 212.37 249.977 212.338 250.07 212.287L250.786 211.895L255.265 209.451H255.271L265.46 203.884C265.554 203.834 265.637 203.765 265.705 203.682C265.773 203.599 265.823 203.504 265.853 203.401C265.883 203.299 265.893 203.191 265.881 203.085C265.869 202.978 265.836 202.876 265.784 202.782Z" fill="#E6E6E6"/>
<path d="M249.053 216.175L244.165 207.207C244.114 207.117 244.03 207.051 243.931 207.023C243.831 206.994 243.725 207.006 243.634 207.056L241.263 208.349L240.033 209.02L233.428 212.623L232.148 213.322C232.058 213.373 231.991 213.457 231.963 213.557C231.935 213.656 231.947 213.763 231.997 213.853L232.31 214.43L236.884 222.821C236.934 222.911 237.017 222.977 237.116 223.005C237.214 223.034 237.32 223.022 237.41 222.972L245.295 218.67L246.525 217.999L248.896 216.707C248.941 216.682 248.981 216.649 249.014 216.609C249.046 216.569 249.071 216.523 249.085 216.474C249.1 216.424 249.104 216.372 249.099 216.321C249.093 216.27 249.078 216.22 249.053 216.175Z" fill="#E6E6E6"/>
<path d="M267.719 213.361C267.617 213.173 267.444 213.033 267.238 212.972C267.033 212.911 266.812 212.935 266.623 213.037L249.724 222.262C249.575 222.344 249.455 222.47 249.382 222.624C249.308 222.778 249.285 222.95 249.315 223.118C249.327 223.205 249.356 223.288 249.4 223.364C249.442 223.441 249.497 223.511 249.562 223.571L249.567 223.577C249.692 223.689 249.849 223.76 250.016 223.78C250.184 223.8 250.353 223.768 250.501 223.688L267.4 214.463C267.494 214.412 267.576 214.343 267.643 214.26C267.71 214.176 267.759 214.081 267.789 213.978C267.818 213.876 267.827 213.769 267.815 213.663C267.803 213.557 267.771 213.454 267.719 213.361Z" fill="#E6E6E6"/>
<path d="M271.969 214.161C271.918 214.068 271.849 213.986 271.765 213.919C271.682 213.853 271.587 213.803 271.484 213.773C271.382 213.744 271.275 213.735 271.169 213.746C271.063 213.758 270.961 213.791 270.867 213.842L251.032 224.668C250.883 224.746 250.763 224.871 250.69 225.023C250.616 225.175 250.593 225.346 250.624 225.512V225.518C250.636 225.605 250.664 225.688 250.708 225.764C250.751 225.844 250.808 225.916 250.876 225.977C251 226.092 251.157 226.164 251.324 226.185C251.492 226.205 251.662 226.171 251.81 226.089L271.645 215.263C271.833 215.16 271.973 214.986 272.034 214.779C272.095 214.573 272.072 214.351 271.969 214.161Z" fill="#E6E6E6"/>
<path d="M244.064 231.242C245.963 231.242 247.503 229.701 247.503 227.801C247.503 225.901 245.963 224.36 244.064 224.36C242.164 224.36 240.624 225.901 240.624 227.801C240.624 229.701 242.164 231.242 244.064 231.242Z" fill="#E6E6E6"/>
<path d="M270.15 174.563L267.816 175.837L239.067 191.53L236.733 192.804C235.601 193.424 234.76 194.468 234.396 195.707C234.032 196.945 234.174 198.278 234.791 199.412L256.201 238.667C256.82 239.8 257.863 240.641 259.102 241.005C260.34 241.369 261.672 241.227 262.806 240.61L262.812 240.607L296.217 222.372L296.223 222.369C297.355 221.749 298.195 220.706 298.559 219.467C298.924 218.228 298.782 216.895 298.165 215.761L276.755 176.506C276.136 175.373 275.092 174.533 273.854 174.168C272.616 173.804 271.284 173.946 270.15 174.563Z" fill="#CCCCCC"/>
<path d="M270.821 175.794L268.057 177.303L240.168 192.526L237.404 194.035C236.598 194.476 236 195.219 235.74 196.102C235.481 196.984 235.582 197.933 236.022 198.741L257.431 237.996C257.872 238.802 258.615 239.401 259.497 239.66C260.379 239.92 261.327 239.818 262.135 239.379L262.141 239.376L295.546 221.142L295.552 221.138C296.358 220.697 296.956 219.954 297.216 219.071C297.475 218.189 297.374 217.24 296.934 216.433L275.525 177.178C275.084 176.371 274.341 175.772 273.459 175.513C272.577 175.253 271.629 175.355 270.821 175.794Z" fill="white"/>
<path d="M271.606 186.877C271.502 186.689 271.328 186.549 271.122 186.488C270.915 186.427 270.693 186.45 270.504 186.553L264.767 189.685L263.167 190.558L258.045 193.355C257.857 193.459 257.718 193.633 257.658 193.839C257.598 194.045 257.622 194.267 257.725 194.455C257.827 194.644 258 194.784 258.206 194.845C258.412 194.906 258.633 194.884 258.822 194.782L264.862 191.487L266.125 190.793L271.281 187.979C271.47 187.875 271.609 187.701 271.67 187.495C271.731 187.288 271.708 187.066 271.606 186.877Z" fill="#CCCCCC"/>
<path d="M275.85 187.677C275.8 187.584 275.731 187.501 275.648 187.435C275.566 187.368 275.471 187.318 275.369 187.289C275.267 187.259 275.16 187.25 275.054 187.262C274.949 187.274 274.847 187.307 274.754 187.358L266.752 191.727L265.521 192.399L259.359 195.761C259.266 195.812 259.183 195.881 259.117 195.964C259.05 196.047 259 196.142 258.971 196.244C258.941 196.346 258.931 196.453 258.943 196.559C258.954 196.665 258.986 196.767 259.037 196.86C259.088 196.954 259.157 197.036 259.24 197.103C259.323 197.169 259.418 197.219 259.52 197.249C259.622 197.279 259.729 197.288 259.835 197.277C259.941 197.265 260.043 197.233 260.136 197.182L266.299 193.82L267.529 193.148L275.526 188.779C275.62 188.729 275.703 188.66 275.771 188.577C275.838 188.494 275.889 188.399 275.919 188.296C275.949 188.194 275.959 188.086 275.947 187.98C275.935 187.873 275.902 187.771 275.85 187.677Z" fill="#CCCCCC"/>
<path d="M259.119 201.07L255.221 193.92L254.55 192.69L254.231 192.102C254.18 192.012 254.096 191.946 253.997 191.918C253.897 191.889 253.791 191.901 253.7 191.951L245.787 196.27L242.214 198.217C242.124 198.268 242.057 198.352 242.029 198.452C242.001 198.551 242.013 198.658 242.063 198.749L242.381 199.33L242.728 199.974L243.053 200.561V200.567L246.95 207.716C247 207.806 247.083 207.872 247.182 207.901C247.28 207.929 247.386 207.917 247.476 207.867L258.962 201.602C259.007 201.577 259.047 201.544 259.08 201.504C259.112 201.464 259.137 201.418 259.151 201.369C259.166 201.319 259.17 201.267 259.165 201.216C259.159 201.165 259.144 201.115 259.119 201.07Z" fill="#CBB3CB"/>
<path d="M277.785 198.256C277.682 198.068 277.509 197.928 277.304 197.867C277.099 197.806 276.877 197.83 276.689 197.932L271.639 200.69L270.409 201.361L265.533 204.018L259.79 207.157C259.696 207.208 259.613 207.277 259.546 207.36C259.479 207.443 259.429 207.538 259.399 207.641C259.369 207.743 259.359 207.85 259.371 207.956C259.382 208.063 259.414 208.165 259.465 208.259C259.516 208.353 259.585 208.435 259.668 208.502C259.751 208.569 259.847 208.619 259.949 208.65C260.051 208.68 260.158 208.689 260.265 208.678C260.371 208.667 260.473 208.635 260.567 208.583L271.186 202.788L272.417 202.116L277.466 199.358C277.56 199.307 277.642 199.238 277.709 199.155C277.775 199.071 277.825 198.976 277.855 198.873C277.884 198.771 277.893 198.664 277.881 198.558C277.869 198.452 277.837 198.349 277.785 198.256Z" fill="#CCCCCC"/>
<path d="M282.035 199.056C281.984 198.963 281.914 198.881 281.831 198.814C281.748 198.748 281.653 198.698 281.55 198.668C281.448 198.639 281.341 198.63 281.235 198.641C281.129 198.653 281.027 198.686 280.933 198.737L272.953 203.095L271.723 203.767L261.098 209.563C261.005 209.613 260.922 209.682 260.855 209.765C260.787 209.848 260.737 209.943 260.707 210.046C260.677 210.148 260.667 210.255 260.679 210.361C260.69 210.467 260.722 210.57 260.773 210.664C260.825 210.757 260.894 210.84 260.977 210.907C261.06 210.973 261.156 211.023 261.258 211.053C261.36 211.082 261.468 211.092 261.574 211.08C261.68 211.068 261.782 211.035 261.875 210.984L272.495 205.188L273.725 204.516L281.711 200.158C281.899 200.055 282.039 199.881 282.1 199.674C282.161 199.468 282.137 199.246 282.035 199.056Z" fill="#CCCCCC"/>
<path d="M254.129 216.137C256.029 216.137 257.569 214.596 257.569 212.696C257.569 210.795 256.029 209.255 254.129 209.255C252.23 209.255 250.69 210.795 250.69 212.696C250.69 214.596 252.23 216.137 254.129 216.137Z" fill="#CCCCCC"/>
<path d="M256.44 232.04C257.019 232.097 257.592 232.2 258.155 232.347L297.16 197.731L294.638 185.312L312.874 179.055L319.475 200.605C320.008 202.346 319.962 204.213 319.345 205.926C318.727 207.639 317.57 209.105 316.049 210.104L266.462 242.675C266.535 244.916 265.924 247.126 264.711 249.011C263.498 250.896 261.74 252.367 259.671 253.229C257.602 254.09 255.319 254.301 253.128 253.833C250.936 253.365 248.938 252.24 247.401 250.609C245.864 248.978 244.859 246.917 244.521 244.7C244.183 242.484 244.528 240.217 245.509 238.201C246.49 236.185 248.061 234.516 250.014 233.416C251.967 232.315 254.208 231.835 256.44 232.04Z" fill="#FFB8B8"/>
<path d="M324.009 182.155L312.959 161.042C311.822 157.831 309.482 155.187 306.433 153.67C303.384 152.152 299.865 151.879 296.619 152.908C296.496 152.941 296.379 152.98 296.256 153.025C292.966 154.176 290.267 156.585 288.751 159.724C287.235 162.863 287.026 166.476 288.169 169.769L292.604 193.104C292.731 193.772 293.001 194.404 293.394 194.959C293.788 195.513 294.297 195.975 294.886 196.315C295.529 196.692 296.254 196.907 296.999 196.942C297.612 196.98 298.227 196.895 298.806 196.69L301.177 195.862L316.398 190.558L321.375 188.824C322.017 188.599 322.603 188.239 323.094 187.768C323.584 187.296 323.967 186.725 324.217 186.092C324.467 185.46 324.578 184.781 324.542 184.101C324.506 183.422 324.324 182.758 324.009 182.155Z" fill="#CBB3CB"/>
<path d="M365.723 263.594H0.559209C0.410898 263.594 0.26866 263.535 0.163788 263.43C0.0589161 263.325 0 263.183 0 263.034C0 262.886 0.0589161 262.744 0.163788 262.639C0.26866 262.534 0.410898 262.475 0.559209 262.475H365.723C365.871 262.475 366.013 262.534 366.118 262.639C366.223 262.744 366.282 262.886 366.282 263.034C366.282 263.183 366.223 263.325 366.118 263.43C366.013 263.535 365.871 263.594 365.723 263.594Z" fill="#3F3D56"/>
<path d="M63.468 253.244V253.524C63.47 255.421 64.0221 257.276 65.0574 258.865C66.0928 260.454 67.5668 261.708 69.3006 262.475C70.5444 263.031 71.8919 263.317 73.2542 263.314H163.566V253.244H63.468Z" fill="#3F3D56"/>
<path d="M226.623 186.877C225.19 183.917 222.983 181.401 220.237 179.593C218.992 178.769 217.649 178.103 216.238 177.613C214.317 176.941 212.296 176.599 210.26 176.6H123.583C118.765 176.606 114.145 178.523 110.738 181.932C107.331 185.34 105.414 189.962 105.409 194.782V245.132C105.407 245.839 105.448 246.545 105.532 247.247C105.655 248.296 105.868 249.333 106.169 250.346C106.468 251.344 106.853 252.314 107.321 253.244C108.827 256.27 111.146 258.816 114.019 260.595C116.892 262.374 120.204 263.316 123.583 263.314H210.26C212.647 263.315 215.011 262.845 217.216 261.932C219.422 261.019 221.426 259.679 223.114 257.991C224.801 256.302 226.14 254.297 227.053 252.091C227.966 249.885 228.436 247.52 228.435 245.132V194.782C228.439 192.044 227.819 189.34 226.623 186.877Z" fill="#3F3D56"/>
<path d="M171.675 224.433C174.146 224.433 176.149 222.429 176.149 219.957C176.149 217.485 174.146 215.481 171.675 215.481C169.204 215.481 167.201 217.485 167.201 219.957C167.201 222.429 169.204 224.433 171.675 224.433Z" fill="white"/>
</g>
<defs>
<clipPath id="clip0_7_2325">
<rect width="400" height="338" fill="white"/>
</clipPath>
</defs>
</svg>
